<svg width="27" height="27" viewBox="0 0 27 27" fill="none" xmlns="http://www.w3.org/2000/svg">
<path d="M23.9963 14.5238C24.0975 16.2675 23.2988 17.9438 21.87 18.9675L22.7363 20.6438C22.995 21.15 23.0288 21.7463 22.8038 22.275C22.59 22.8038 22.1513 23.22 21.6113 23.4L20.7225 23.6813C20.3524 23.8059 19.9529 23.8134 19.5784 23.7027C19.204 23.592 18.8728 23.3684 18.63 23.0625L16.245 20.25C15.2438 20.0813 14.2988 19.6538 13.5 19.0125C12.9375 19.1813 12.375 19.2713 11.8125 19.2713C10.8225 19.2713 9.8325 18.9675 9 18.3825C8.40375 18.5625 7.79625 18.6413 7.1775 18.63C6.28875 18.6413 5.41125 18.4613 4.59 18.1238C3.79951 17.7711 3.12406 17.2033 2.64069 16.4852C2.15733 15.7671 1.88551 14.9276 1.85625 14.0625C1.76625 13.2525 1.90125 12.4313 2.25 11.6888C1.92375 10.845 1.89 9.92252 2.17125 9.06752C2.5875 7.99877 3.375 7.11002 4.35375 6.54752C5.00625 4.64627 6.84 3.37502 8.85375 3.51002C10.6538 1.82252 13.41 1.64252 15.4125 3.09377C15.885 2.97002 16.38 2.90252 16.875 2.90252C18.405 2.86877 19.8563 3.54377 20.8125 4.74752C23.1075 5.34377 24.75 7.39127 24.84 9.77627C24.8963 11.025 24.5588 12.2513 23.8725 13.2975C23.9513 13.7025 23.9963 14.1075 23.9963 14.5238ZM18.3713 12.9375C19.0125 13.0163 19.5188 13.5 19.5188 14.1413C19.5188 14.4396 19.4002 14.7258 19.1892 14.9368C18.9783 15.1477 18.6921 15.2663 18.3938 15.2663H17.685C17.325 16.2788 16.695 17.1675 15.8625 17.8425C16.1438 17.9438 16.4363 18 16.7288 18.0788C22.5 18 21.825 14.4788 21.825 14.4225C21.7951 13.6498 21.4595 12.9205 20.892 12.3952C20.3245 11.8698 19.5715 11.5915 18.7988 11.6213C18.5004 11.6213 18.2142 11.5027 18.0033 11.2918C17.7923 11.0808 17.6738 10.7946 17.6738 10.4963C17.6738 10.1979 17.7923 9.91175 18.0033 9.70077C18.2142 9.4898 18.5004 9.37127 18.7988 9.37127C20.1825 9.40502 21.51 9.92252 22.545 10.8338C22.6013 10.5075 22.635 10.17 22.635 9.83252C22.5675 8.43752 21.9375 7.22252 19.4063 6.98627C18 3.65627 14.4563 5.50127 14.4563 6.53627C14.4225 6.79502 14.6925 7.34627 14.7375 7.38002C15.0359 7.38002 15.322 7.49855 15.533 7.70952C15.744 7.9205 15.8625 8.20665 15.8625 8.50502C15.8625 9.12377 15.3563 9.63002 14.7375 9.63002C14.1413 9.60752 13.5788 9.38252 13.1288 9.00002C12.5888 9.34877 11.97 9.56252 11.3288 9.63002C10.6875 9.68627 10.1588 9.23627 10.125 8.61752C10.1043 8.47056 10.1138 8.32092 10.153 8.17778C10.1922 8.03464 10.2603 7.90103 10.353 7.78514C10.4457 7.66925 10.5611 7.57353 10.6921 7.50387C10.8232 7.4342 10.9671 7.39206 11.115 7.38002C11.295 7.35752 12.1725 7.22252 12.1725 6.51377C12.1725 5.77127 12.4538 5.06252 12.9375 4.50002C11.9025 4.21877 10.7888 4.59002 9.66375 5.95127C7.59375 5.62502 6.75 5.90627 6.13125 8.10002C5.0625 8.62877 4.5 9.00002 4.2525 10.125C5.4675 9.87752 6.71625 9.97877 7.875 10.4063C8.4375 10.62 8.7525 11.25 8.53875 11.8575C8.325 12.4425 7.6725 12.735 7.0875 12.5213C6.26625 12.1613 5.34375 12.1388 4.5 12.4538C4.14 12.7575 4.14 13.3875 4.14 13.8825C4.14 14.715 4.55625 15.4913 5.265 15.9413C5.86125 16.245 6.525 16.4025 7.18875 16.3913C7.02 16.0988 6.87375 15.795 6.75 15.48C6.66144 15.191 6.68842 14.8789 6.82526 14.6093C6.96211 14.3397 7.19815 14.1338 7.48376 14.0347C7.76936 13.9356 8.08226 13.9511 8.35665 14.078C8.63104 14.2049 8.84553 14.4332 8.955 14.715C9.405 15.9975 10.5525 16.875 11.9025 17.0213C13.4438 16.9425 14.8163 16.0313 15.4913 14.625C15.75 13.0725 16.9988 12.9375 18.3713 12.9375ZM20.6213 21.3413L19.9238 19.8788L19.125 20.0588L20.25 21.465L20.6213 21.3413ZM15.39 11.655C15.3998 11.3676 15.2991 11.0874 15.1087 10.8719C14.9184 10.6564 14.6527 10.522 14.3663 10.4963C13.5675 10.4513 12.7913 10.7213 12.195 11.25C11.5538 11.9025 11.2163 12.8025 11.25 13.7138C11.25 14.0121 11.3685 14.2983 11.5795 14.5093C11.7905 14.7202 12.0766 14.8388 12.375 14.8388C13.0163 14.8388 13.5 14.3325 13.5 13.7138C13.5 13.41 13.5788 13.1063 13.7588 12.8588C13.8938 12.7463 14.0625 12.69 14.2425 12.69C14.8613 12.7238 15.39 12.2625 15.39 11.655Z" fill="#F9AD9A"/>
</svg>
