<svg width="26" height="26" viewBox="0 0 26 26" fill="none" xmlns="http://www.w3.org/2000/svg">
<path d="M21.6667 6.49996H18.4167V4.33329C18.4167 3.13838 17.4449 2.16663 16.25 2.16663H9.74999C8.55507 2.16663 7.58332 3.13838 7.58332 4.33329V6.49996H4.33332C3.13841 6.49996 2.16666 7.47171 2.16666 8.66663V11.9166H23.8333V8.66663C23.8333 7.47171 22.8616 6.49996 21.6667 6.49996ZM9.74999 4.33329H16.25V6.49996H9.74999V4.33329ZM15.1667 15.1666H10.8333V13H2.16666V20.5833C2.16666 21.7782 3.13841 22.75 4.33332 22.75H21.6667C22.8616 22.75 23.8333 21.7782 23.8333 20.5833V13H15.1667V15.1666Z" fill="#F9AD9A"/>
</svg>
