<svg width="73" height="73" viewBox="0 0 73 73" fill="none" xmlns="http://www.w3.org/2000/svg">
<path fill-rule="evenodd" clip-rule="evenodd" d="M29.7414 63.875H43.2586C52.7516 63.875 57.4997 63.875 60.9094 61.6394C62.3806 60.6751 63.6477 59.4308 64.6385 57.9772C66.9167 54.6314 66.9167 49.9685 66.9167 40.6489C66.9167 31.3261 66.9167 26.6663 64.6385 23.3205C63.6478 21.8669 62.3807 20.6225 60.9094 19.6583C58.7194 18.2196 55.9758 17.7056 51.7752 17.5231C49.7708 17.5231 48.0462 16.0326 47.6538 14.1012C47.3539 12.6864 46.5748 11.4185 45.4481 10.5119C44.3214 9.60519 42.9162 9.11531 41.4701 9.12502H31.5299C28.5247 9.12502 25.9363 11.2086 25.3462 14.1012C24.9538 16.0326 23.2292 17.5231 21.2248 17.5231C17.0272 17.7056 14.2837 18.2226 12.0906 19.6583C10.6203 20.6227 9.35426 21.8671 8.36458 23.3205C6.08333 26.6663 6.08333 31.3261 6.08333 40.6489C6.08333 49.9685 6.08333 54.6283 8.36154 57.9772C9.34704 59.4251 10.6124 60.6691 12.0906 61.6394C15.5003 63.875 20.2484 63.875 29.7414 63.875ZM36.5 28.2054C29.5011 28.2054 23.8254 33.7747 23.8254 40.6458C23.8254 47.52 29.5011 53.0893 36.5 53.0893C43.4989 53.0893 49.1746 47.52 49.1746 40.6489C49.1746 33.7747 43.4989 28.2054 36.5 28.2054ZM36.5 33.1816C32.3025 33.1816 28.8958 36.5244 28.8958 40.6489C28.8958 44.7703 32.3025 48.1131 36.5 48.1131C40.6975 48.1131 44.1042 44.7703 44.1042 40.6489C44.1042 36.5244 40.6975 33.1816 36.5 33.1816ZM50.8627 30.6935C50.8627 29.3186 51.9973 28.2054 53.3995 28.2054H56.7757C58.1749 28.2054 59.3125 29.3186 59.3125 30.6935C59.3061 31.3593 59.0356 31.9953 58.5605 32.4618C58.0855 32.9284 57.4446 33.1872 56.7788 33.1816H53.3995C53.0696 33.1848 52.7422 33.123 52.4362 32.9997C52.1301 32.8764 51.8514 32.694 51.6158 32.4629C51.3802 32.2319 51.1925 31.9567 51.0633 31.6531C50.9341 31.3495 50.8659 31.0234 50.8627 30.6935Z" fill="#F9AD9A"/>
</svg>
