<svg width="12" height="12" viewBox="0 0 12 12" fill="none" xmlns="http://www.w3.org/2000/svg">
<path d="M1.55556 3.22222H3.22222C3.36956 3.22222 3.51087 3.16369 3.61506 3.0595C3.71925 2.95532 3.77778 2.81401 3.77778 2.66667V2.11111C3.77778 1.81643 3.89484 1.53381 4.10322 1.32544C4.31159 1.11706 4.5942 1 4.88889 1C5.18357 1 5.46619 1.11706 5.67456 1.32544C5.88294 1.53381 6 1.81643 6 2.11111V2.66667C6 2.81401 6.05853 2.95532 6.16272 3.0595C6.26691 3.16369 6.40821 3.22222 6.55556 3.22222H8.22222C8.36957 3.22222 8.51087 3.28075 8.61506 3.38494C8.71925 3.48913 8.77778 3.63044 8.77778 3.77778V5.44444C8.77778 5.59179 8.83631 5.73309 8.9405 5.83728C9.04468 5.94147 9.18599 6 9.33333 6H9.88889C10.1836 6 10.4662 6.11706 10.6746 6.32544C10.8829 6.53381 11 6.81643 11 7.11111C11 7.4058 10.8829 7.68841 10.6746 7.89679C10.4662 8.10516 10.1836 8.22222 9.88889 8.22222H9.33333C9.18599 8.22222 9.04468 8.28075 8.9405 8.38494C8.83631 8.48913 8.77778 8.63044 8.77778 8.77778V10.4444C8.77778 10.5918 8.71925 10.7331 8.61506 10.8373C8.51087 10.9415 8.36957 11 8.22222 11H6.55556C6.40821 11 6.26691 10.9415 6.16272 10.8373C6.05853 10.7331 6 10.5918 6 10.4444V9.88889C6 9.5942 5.88294 9.31159 5.67456 9.10322C5.46619 8.89484 5.18357 8.77778 4.88889 8.77778C4.5942 8.77778 4.31159 8.89484 4.10322 9.10322C3.89484 9.31159 3.77778 9.5942 3.77778 9.88889V10.4444C3.77778 10.5918 3.71925 10.7331 3.61506 10.8373C3.51087 10.9415 3.36956 11 3.22222 11H1.55556C1.40821 11 1.26691 10.9415 1.16272 10.8373C1.05853 10.7331 1 10.5918 1 10.4444V8.77778C1 8.63044 1.05853 8.48913 1.16272 8.38494C1.26691 8.28075 1.40821 8.22222 1.55556 8.22222H2.11111C2.4058 8.22222 2.68841 8.10516 2.89679 7.89679C3.10516 7.68841 3.22222 7.4058 3.22222 7.11111C3.22222 6.81643 3.10516 6.53381 2.89679 6.32544C2.68841 6.11706 2.4058 6 2.11111 6H1.55556C1.40821 6 1.26691 5.94147 1.16272 5.83728C1.05853 5.73309 1 5.59179 1 5.44444V3.77778C1 3.63044 1.05853 3.48913 1.16272 3.38494C1.26691 3.28075 1.40821 3.22222 1.55556 3.22222Z" stroke="white" stroke-linecap="round" stroke-linejoin="round"/>
</svg>
