<svg width="27" height="27" viewBox="0 0 27 27" fill="none" xmlns="http://www.w3.org/2000/svg">
<path d="M21.375 3.375C21.9717 3.375 22.544 3.61205 22.966 4.03401C23.3879 4.45597 23.625 5.02826 23.625 5.625V21.375C23.625 21.9717 23.3879 22.544 22.966 22.966C22.544 23.3879 21.9717 23.625 21.375 23.625H5.625C5.02826 23.625 4.45597 23.3879 4.03401 22.966C3.61205 22.544 3.375 21.9717 3.375 21.375V5.625C3.375 5.02826 3.61205 4.45597 4.03401 4.03401C4.45597 3.61205 5.02826 3.375 5.625 3.375H21.375ZM18.7875 10.5188C19.035 10.2825 19.035 9.88875 18.7875 9.6525L17.3475 8.2125C17.2916 8.15389 17.2244 8.10724 17.15 8.07536C17.0755 8.04348 16.9954 8.02704 16.9144 8.02704C16.8334 8.02704 16.7532 8.04348 16.6788 8.07536C16.6043 8.10724 16.5371 8.15389 16.4812 8.2125L15.3562 9.3375L17.6625 11.6438L18.7875 10.5188ZM7.875 16.8075V19.125H10.1925L17.01 12.3075L14.6925 9.99L7.875 16.8075Z" fill="#900C3E"/>
</svg>
