<svg xmlns="http://www.w3.org/2000/svg" width="29" height="29" viewBox="0 0 29 29" fill="none">
<path d="M25.2917 0.625C26.1094 0.625 26.8937 0.94985 27.4719 1.52809C28.0501 2.10632 28.375 2.89058 28.375 3.70833V25.2917C28.375 26.1094 28.0501 26.8937 27.4719 27.4719C26.8937 28.0501 26.1094 28.375 25.2917 28.375H3.70833C2.89058 28.375 2.10632 28.0501 1.52809 27.4719C0.94985 26.8937 0.625 26.1094 0.625 25.2917V3.70833C0.625 2.89058 0.94985 2.10632 1.52809 1.52809C2.10632 0.94985 2.89058 0.625 3.70833 0.625H25.2917ZM21.7458 10.4146C22.085 10.0908 22.085 9.55125 21.7458 9.2275L19.7725 7.25417C19.6959 7.17385 19.6038 7.10992 19.5018 7.06623C19.3998 7.02255 19.2899 7.00002 19.179 7.00002C19.068 7.00002 18.9581 7.02255 18.8561 7.06623C18.7541 7.10992 18.662 7.17385 18.5854 7.25417L17.0437 8.79583L20.2042 11.9563L21.7458 10.4146ZM6.79167 19.0325V22.2083H9.9675L19.31 12.8658L16.1342 9.69L6.79167 19.0325Z" fill="#F9AD9A"/>
</svg>