<svg width="24" height="24" viewBox="0 0 24 24" fill="none" xmlns="http://www.w3.org/2000/svg">
<path d="M13.06 8.10999L14.475 9.52499C15.1251 10.175 15.6408 10.9467 15.9926 11.796C16.3444 12.6454 16.5255 13.5557 16.5255 14.475C16.5255 15.3943 16.3444 16.3046 15.9926 17.1539C15.6408 18.0033 15.1251 18.775 14.475 19.425L14.121 19.778C13.471 20.428 12.6992 20.9437 11.8499 21.2955C11.0006 21.6473 10.0903 21.8283 9.171 21.8283C8.2517 21.8283 7.3414 21.6473 6.49208 21.2955C5.64276 20.9437 4.87104 20.428 4.221 19.778C3.57096 19.1279 3.05531 18.3562 2.70351 17.5069C2.35171 16.6576 2.17064 15.7473 2.17064 14.828C2.17064 13.9087 2.35171 12.9984 2.70351 12.1491C3.05531 11.2997 3.57096 10.528 4.221 9.87799L5.636 11.293C4.72521 12.236 4.22124 13.499 4.23263 14.81C4.24402 16.121 4.76987 17.375 5.69691 18.3021C6.62395 19.2291 7.87801 19.755 9.18899 19.7664C10.5 19.7778 11.763 19.2738 12.706 18.363L13.06 18.01C13.9974 17.0724 14.5239 15.8008 14.5239 14.475C14.5239 13.1492 13.9974 11.8776 13.06 10.94L11.646 9.52499L13.06 8.10999ZM19.778 14.121L18.364 12.707C19.2949 11.7679 19.8159 10.4983 19.813 9.17602C19.8101 7.85374 19.2836 6.58644 18.3486 5.65144C17.4136 4.71644 16.1463 4.18988 14.824 4.18698C13.5017 4.18409 12.2321 4.70509 11.293 5.63599L10.939 5.98899C10.0013 6.92667 9.47457 8.19842 9.47457 9.52449C9.47457 10.8506 10.0013 12.1223 10.939 13.06L12.353 14.475L10.939 15.889L9.525 14.475C8.87491 13.825 8.35923 13.0533 8.00741 12.2039C7.65558 11.3546 7.47449 10.4443 7.47449 9.52499C7.47449 8.60567 7.65558 7.69536 8.00741 6.84604C8.35923 5.99671 8.87491 5.22501 9.525 4.57499L9.878 4.22199C11.1908 2.90917 12.9714 2.17163 14.828 2.17163C16.6846 2.17163 18.4652 2.90917 19.778 4.22199C21.0908 5.53481 21.8284 7.31538 21.8284 9.17199C21.8284 11.0286 21.0908 12.8082 19.778 14.121Z" fill="#F9AD9A"/>
</svg>
