<svg width="21" height="21" viewBox="0 0 21 21" fill="none" xmlns="http://www.w3.org/2000/svg">
<g clip-path="url(#clip0_9_173)">
<path d="M2.655 12.75C1.42121 11.186 0.750134 9.25206 0.75 7.26V2.37C2.8061 1.30602 5.08742 0.750732 7.4025 0.750732C9.71758 0.750732 11.9989 1.30602 14.055 2.37" stroke="#F9AD9A" stroke-width="2" stroke-linecap="round" stroke-linejoin="round"/>
<path d="M11.685 20.16C11.1601 20.2786 10.6145 20.2711 10.093 20.1382C9.57155 20.0052 9.08902 19.7505 8.685 19.395C7.28138 18.185 6.24199 16.6084 5.68306 14.8415C5.12412 13.0746 5.06766 11.1871 5.52 9.38997L6.615 5.00997C8.99323 4.40681 11.484 4.40355 13.8638 5.00046C16.2436 5.59737 18.438 6.77579 20.25 8.42997L19.155 12.795C18.7136 14.5937 17.7815 16.2346 16.4627 17.535C15.1438 18.8353 13.4898 19.7441 11.685 20.16Z" stroke="#F9AD9A" stroke-width="2" stroke-linecap="round" stroke-linejoin="round"/>
<path d="M8.415 9.76497C8.60422 9.56695 8.84405 9.42452 9.10848 9.35313C9.3729 9.28173 9.65183 9.2841 9.915 9.35997C10.1726 9.42057 10.4096 9.54823 10.6019 9.73001C10.7942 9.91178 10.935 10.1412 11.01 10.395M14.355 11.25C14.5382 11.0531 14.7709 10.9091 15.0288 10.8331C15.2867 10.757 15.5603 10.7517 15.8209 10.8176C16.0816 10.8835 16.3198 11.0183 16.5105 11.2079C16.7012 11.3974 16.8375 11.6347 16.905 11.895" stroke="#F9AD9A" stroke-linecap="round" stroke-linejoin="round"/>
</g>
<defs>
<clipPath id="clip0_9_173">
<rect width="21" height="21" fill="white"/>
</clipPath>
</defs>
</svg>
