<svg width="21" height="21" viewBox="0 0 21 21" fill="none" xmlns="http://www.w3.org/2000/svg">
<g clip-path="url(#clip0_9_171)">
<path d="M21 14.6875H21.25V14.4375V5.25456C21.2575 5.03887 21.2153 4.83075 21.1247 4.63314C21.0384 4.44471 20.9263 4.27931 20.7871 4.14012C20.6478 4.00078 20.4846 3.89109 20.2999 3.81077C20.1088 3.72772 19.9037 3.6875 19.6875 3.6875H9.52385C9.3321 3.67459 9.16852 3.64373 9.03072 3.59779C8.89184 3.5515 8.76545 3.48534 8.65049 3.39912C8.5159 3.29818 8.38124 3.19382 8.24651 3.08603C8.09842 2.96756 7.93045 2.85464 7.74358 2.74683C7.54603 2.63286 7.32826 2.54318 7.09161 2.47662C6.84462 2.40716 6.55738 2.375 6.23438 2.375H1.31707C1.10138 2.36747 0.893255 2.4097 0.695641 2.50027C0.507214 2.58664 0.341806 2.69868 0.202618 2.83787C0.0632761 2.97721 -0.0464118 3.14039 -0.126728 3.32512C-0.209785 3.51615 -0.25 3.72129 -0.25 3.9375V18.375V18.625H0H11.8125H12.0625V18.375V17.0625V16.8125H11.8125H1.5625V6.8125H6.23438V6.81275L6.24548 6.81225C6.56433 6.79808 6.8477 6.76241 7.09308 6.70292C7.33927 6.64324 7.56174 6.55597 7.75753 6.43849C7.93674 6.33097 8.09995 6.21872 8.24651 6.10147C8.37965 5.99495 8.51616 5.89173 8.65605 5.79181C8.78357 5.70073 8.91584 5.62877 9.05301 5.5751C9.17485 5.52742 9.32723 5.5 9.51562 5.5H19.4375V14.4375V14.6875H19.6875H21ZM21.25 17.0625V16.8125H21H18.625V14.4375V14.1875H18.375H17.0625H16.8125V14.4375V16.8125H14.4375H14.1875V17.0625V18.375V18.625H14.4375H16.8125V21V21.25H17.0625H18.375H18.625V21V18.625H21H21.25V18.375V17.0625ZM15.0759 9.8255L15.2523 9.64872L15.0757 9.47215L14.1529 8.5493L13.9763 8.37278L13.7996 8.54904L10.5 11.8389L7.20044 8.54904L7.02366 8.37278L6.84715 8.5493L5.9243 9.47215L5.74773 9.64872L5.92409 9.8255L10.323 14.2347L10.5 14.4121L10.677 14.2347L15.0759 9.8255ZM6.61081 4.96494C6.50997 4.98735 6.38534 5 6.23438 5H1.5625V4.1875H6.22929C6.38814 4.19407 6.51312 4.20985 6.60778 4.23212C6.69999 4.25382 6.79089 4.28936 6.88085 4.33996C6.97941 4.3954 7.07125 4.45668 7.15658 4.52373C7.18489 4.54597 7.21428 4.56958 7.24474 4.59456C7.21019 4.62314 7.17739 4.64962 7.14633 4.67403C7.05871 4.74287 6.9682 4.80527 6.87479 4.86131C6.79652 4.90828 6.70905 4.94311 6.61081 4.96494Z" fill="#F9AD9A" stroke="#F9AD9A" stroke-width="0.5"/>
</g>
<defs>
<clipPath id="clip0_9_171">
<rect width="21" height="21" fill="white"/>
</clipPath>
</defs>
</svg>
