<svg width="15" height="15" viewBox="0 0 15 15" fill="none" xmlns="http://www.w3.org/2000/svg">
<path d="M14.707 7.21465C14.6853 7.16719 14.1721 6.02754 13.0383 4.89375C11.5213 3.3791 9.60936 2.57812 7.49999 2.57812C5.39061 2.57812 3.4787 3.3791 1.96346 4.89375C0.829673 6.02754 0.316392 7.16719 0.292955 7.21465C0.253259 7.30465 0.232758 7.40193 0.232758 7.50029C0.232758 7.59866 0.253259 7.69594 0.292955 7.78594C0.314634 7.83398 0.827916 8.97305 1.96229 10.1068C3.4787 11.6215 5.39061 12.4219 7.49999 12.4219C9.60936 12.4219 11.5213 11.6215 13.0359 10.1068C14.1703 8.97305 14.6836 7.83398 14.7053 7.78594C14.7452 7.69606 14.766 7.59884 14.7663 7.50048C14.7666 7.40211 14.7464 7.30477 14.707 7.21465ZM12.0082 9.14824C10.7502 10.3869 9.23378 11.0156 7.49999 11.0156C5.7662 11.0156 4.24979 10.3869 2.99354 9.14766C2.49921 8.65853 2.07399 8.10419 1.72967 7.5C2.07409 6.89605 2.4993 6.34192 2.99354 5.85293C4.25038 4.61309 5.7662 3.98438 7.49999 3.98438C9.23378 3.98438 10.7496 4.61309 12.0064 5.85293C12.5007 6.34187 12.9259 6.89601 13.2703 7.5C12.9259 8.10416 12.5007 8.65849 12.0064 9.14766L12.0082 9.14824ZM7.49999 4.92188C6.99008 4.92188 6.49163 5.07308 6.06766 5.35637C5.64369 5.63966 5.31324 6.0423 5.11811 6.51339C4.92298 6.98448 4.87192 7.50286 4.9714 8.00297C5.07088 8.50307 5.31642 8.96245 5.67698 9.32301C6.03753 9.68357 6.49691 9.92911 6.99702 10.0286C7.49713 10.1281 8.0155 10.077 8.48659 9.88188C8.95768 9.68674 9.36033 9.3563 9.64362 8.93233C9.92691 8.50836 10.0781 8.0099 10.0781 7.5C10.0773 6.81648 9.80546 6.16117 9.32214 5.67785C8.83881 5.19452 8.18351 4.92265 7.49999 4.92188ZM7.49999 8.67188C7.26821 8.67188 7.04164 8.60315 6.84893 8.47438C6.65621 8.34561 6.50601 8.16259 6.41731 7.94846C6.32862 7.73432 6.30541 7.4987 6.35063 7.27138C6.39585 7.04406 6.50746 6.83525 6.67135 6.67136C6.83524 6.50747 7.04404 6.39586 7.27136 6.35064C7.49869 6.30543 7.73431 6.32863 7.94844 6.41733C8.16258 6.50603 8.3456 6.65623 8.47436 6.84894C8.60313 7.04166 8.67186 7.26823 8.67186 7.5C8.67186 7.8108 8.5484 8.10887 8.32863 8.32864C8.10886 8.54841 7.81079 8.67188 7.49999 8.67188Z" fill="white"/>
</svg>
