<svg width="15" height="15" viewBox="0 0 15 15" fill="none" xmlns="http://www.w3.org/2000/svg">
<path fill-rule="evenodd" clip-rule="evenodd" d="M9.5584 0.975963L1.496 9.03836C1.37547 9.15859 1.29644 9.31413 1.2704 9.48236L0.706399 13.1576C0.687368 13.2817 0.697826 13.4086 0.736927 13.5279C0.776029 13.6472 0.842675 13.7557 0.931473 13.8445C1.02027 13.9333 1.12873 13.9999 1.24807 14.039C1.3674 14.0781 1.49427 14.0886 1.6184 14.0696L5.2944 13.5056C5.46254 13.4797 5.61806 13.401 5.7384 13.2808L13.8008 5.21836C13.9508 5.06834 14.035 4.86489 14.035 4.65276C14.035 4.44063 13.9508 4.23718 13.8008 4.08716L10.6888 0.975163C10.5388 0.82543 10.3355 0.741333 10.1236 0.741333C9.91166 0.741333 9.70839 0.82543 9.5584 0.975163V0.975963ZM2.4536 12.3232L2.812 9.98396L10.124 2.67196L12.104 4.65276L4.792 11.9648L2.4536 12.3232Z" fill="white"/>
<path d="M8.1536 4.19756L9.0016 3.34875L11.5952 5.94076L10.7464 6.78956L8.1536 4.19756Z" fill="white"/>
</svg>
