<svg width="27" height="26" viewBox="0 0 27 26" fill="none" xmlns="http://www.w3.org/2000/svg">
<path d="M23 7.44445V20.7778C23 21.3889 22.7822 21.9122 22.3467 22.3478C21.9111 22.7833 21.3881 23.0007 20.7778 23H5.22222C4.61111 23 4.08778 22.7822 3.65222 22.3467C3.21667 21.9111 2.99926 21.3881 3 20.7778V5.22222C3 4.61111 3.21778 4.08778 3.65334 3.65222C4.08889 3.21667 4.61185 2.99926 5.22222 3H18.5556L23 7.44445ZM13 19.6667C13.9259 19.6667 14.713 19.3426 15.3611 18.6944C16.0093 18.0463 16.3333 17.2593 16.3333 16.3333C16.3333 15.4074 16.0093 14.6204 15.3611 13.9722C14.713 13.3241 13.9259 13 13 13C12.0741 13 11.287 13.3241 10.6389 13.9722C9.99074 14.6204 9.66667 15.4074 9.66667 16.3333C9.66667 17.2593 9.99074 18.0463 10.6389 18.6944C11.287 19.3426 12.0741 19.6667 13 19.6667ZM6.33333 10.7778H16.3333V6.33333H6.33333V10.7778Z" fill="white"/>
</svg>
