<svg width="247" height="247" viewBox="0 0 247 247" fill="none" xmlns="http://www.w3.org/2000/svg">
<g clip-path="url(#clip0_33_218)">
<path d="M213.161 -0.598389C209.598 -0.598389 206.207 1.01661 203.357 3.86661L196.536 10.3931L236.607 50.4641L243.143 43.6431C248.843 37.9431 248.843 29.4501 243.143 23.7501L223.25 3.85711C220.4 1.00711 216.723 -0.598389 213.161 -0.598389ZM190 16.0361L179.607 24.6526L222.357 67.4026L231.857 57.9026L190 16.0361ZM173.964 31.4736L88.179 116.385C87.7447 116.743 87.3441 117.141 86.982 117.572L86.393 117.867C85.3568 119.054 84.6407 120.486 84.3125 122.028L72.732 162.697C72.2357 164.307 72.1877 166.021 72.5933 167.656C72.9988 169.291 73.8426 170.785 75.0337 171.976C76.2248 173.167 77.7183 174.011 79.3532 174.416C80.9882 174.822 82.7028 174.774 84.3125 174.278L124.982 162.697C126.332 162.377 127.593 161.757 128.672 160.884C129.751 160.011 130.62 158.907 131.214 157.653L215.536 74.2236L199.5 57.0001V57.8931L188.214 46.6071H189.107L173.964 31.4736ZM7.72351 38.0001C5.52264 38.4187 3.54051 39.6016 2.12726 41.34C0.714002 43.0783 -0.0394438 45.2601 9.56585e-06 47.5001V237.5C9.56585e-06 240.02 1.0009 242.436 2.7825 244.218C4.56409 245.999 6.98045 247 9.50001 247H199.5C202.02 247 204.436 245.999 206.218 244.218C207.999 242.436 209 240.02 209 237.5V133C209 130.481 207.999 128.064 206.218 126.283C204.436 124.501 202.02 123.5 199.5 123.5C196.98 123.5 194.564 124.501 192.782 126.283C191.001 128.064 190 130.481 190 133V228H19V57.0001H114C116.52 57.0001 118.936 55.9992 120.718 54.2176C122.499 52.436 123.5 50.0197 123.5 47.5001C123.5 44.9806 122.499 42.5642 120.718 40.7826C118.936 39.001 116.52 38.0001 114 38.0001H9.50001C9.20251 37.9861 8.90451 37.9861 8.60701 38.0001C8.30951 37.9861 8.01151 37.9861 7.71401 38.0001H7.72351ZM100.947 131.224L114.01 132.107L114.903 146.357L101.84 150.214L96.7955 145.179L100.947 131.224Z" fill="white"/>
</g>
<defs>
<clipPath id="clip0_33_218">
<rect width="247" height="247" fill="white"/>
</clipPath>
</defs>
</svg>
