<svg width="289" height="285" viewBox="0 0 289 285" fill="none" xmlns="http://www.w3.org/2000/svg">
<path d="M198.688 231.562C208.663 231.562 216.75 223.588 216.75 213.75C216.75 203.912 208.663 195.938 198.688 195.938C188.712 195.938 180.625 203.912 180.625 213.75C180.625 223.588 188.712 231.562 198.688 231.562Z" fill="white"/>
<path d="M268.924 209.11C263.343 195.09 253.714 182.994 241.229 174.32C228.744 165.646 213.952 160.775 198.688 160.312C183.423 160.775 168.631 165.646 156.146 174.32C143.661 182.994 134.032 195.09 128.451 209.11L126.438 213.75L128.451 218.39C134.032 232.41 143.661 244.506 156.146 253.18C168.631 261.854 183.423 266.725 198.688 267.188C213.952 266.725 228.744 261.854 241.229 253.18C253.714 244.506 263.343 232.41 268.924 218.39L270.938 213.75L268.924 209.11ZM198.688 249.375C191.543 249.375 184.558 247.286 178.618 243.371C172.677 239.457 168.047 233.893 165.312 227.383C162.578 220.873 161.863 213.71 163.257 206.8C164.651 199.889 168.091 193.542 173.143 188.559C178.195 183.577 184.632 180.184 191.64 178.81C198.647 177.435 205.911 178.14 212.512 180.837C219.113 183.533 224.755 188.099 228.724 193.958C232.694 199.816 234.812 206.704 234.812 213.75C234.801 223.195 230.991 232.249 224.219 238.928C217.446 245.606 208.265 249.363 198.688 249.375Z" fill="white"/>
<path d="M72.25 80.1562C77.2378 80.1562 81.2812 76.1688 81.2812 71.25C81.2812 66.3312 77.2378 62.3438 72.25 62.3438C67.2622 62.3438 63.2188 66.3312 63.2188 71.25C63.2188 76.1688 67.2622 80.1562 72.25 80.1562Z" fill="white"/>
<path d="M72.25 151.406C77.2378 151.406 81.2812 147.419 81.2812 142.5C81.2812 137.581 77.2378 133.594 72.25 133.594C67.2622 133.594 63.2188 137.581 63.2188 142.5C63.2188 147.419 67.2622 151.406 72.25 151.406Z" fill="white"/>
<path d="M72.25 222.656C77.2378 222.656 81.2812 218.669 81.2812 213.75C81.2812 208.831 77.2378 204.844 72.25 204.844C67.2622 204.844 63.2188 208.831 63.2188 213.75C63.2188 218.669 67.2622 222.656 72.25 222.656Z" fill="white"/>
<path d="M45.1562 187.031H108.375V169.219H45.1562V115.781H189.656V142.5H207.719V44.5312C207.719 39.8071 205.816 35.2764 202.428 31.9359C199.041 28.5954 194.447 26.7188 189.656 26.7188H45.1562C40.3658 26.7188 35.7715 28.5954 32.3841 31.9359C28.9968 35.2764 27.0938 39.8071 27.0938 44.5312V240.469C27.0938 245.193 28.9968 249.724 32.3841 253.064C35.7715 256.405 40.3658 258.281 45.1562 258.281H108.375V240.469H45.1562V187.031ZM45.1562 44.5312H189.656V97.9688H45.1562V44.5312Z" fill="white"/>
</svg>
